<svg xmlns="http://www.w3.org/2000/svg" enable-background="new 0 0 2000 2000" viewBox="0 0 2000 2000" id="page-not-found-404"><linearGradient id="a" x1="1000" x2="1000" y1="1743.217" y2="-111.783" gradientUnits="userSpaceOnUse"><stop offset="0" stop-color="#fefefd"></stop><stop offset="1" stop-color="#ebf3ff"></stop></linearGradient><path fill="url(#a)" d="M1927.5,1000c0,512.2399902-415.2600098,927.5-927.5,927.5S72.5,1512.2399902,72.5,1000
	c0-196.4899902,61.0999756-378.7200317,165.3499756-528.710022c58.210022-83.75,129.8699951-157.460022,211.8600464-217.9699707
	C603.6500244,139.6699829,793.9799805,72.5,1000,72.5C1512.2399902,72.5,1927.5,487.7600098,1927.5,1000z"></path><linearGradient id="b" x1="997.446" x2="997.446" y1="1671.36" y2="1140.963" gradientUnits="userSpaceOnUse"><stop offset="0" stop-color="#fefefd"></stop><stop offset=".84" stop-color="#ebf3ff"></stop></linearGradient><path fill="url(#b)" d="M1920.0704346,1117.9356689
	c-102.2143555-44.6578369-235.2941895-66.0406494-318.4187012-34.8901367
	c-77.9854736,29.2247314-65.4412842,87.2347412-145.4901123,111.2030029
	c-129.1507568,38.6699219-218.6149902-95.3220215-410.7965088-88.9624023
	c-170.9894409,5.6584473-230.2662964,116.0340576-359.4465332,88.9624023
	c-80.5651855-16.8839111-95.8200684-67.84375-153.1702271-103.7893066
	c-96.0999146-60.2322998-280.566925-59.6014404-457.9269104-25.1412354
	c16.1507111,232.0910645,117.6680832,440.6387939,273.3921509,594.4831543
	c175.1634827,32.4003906,365.7452698,49.7016602,551.661377,42.8039551
	c326.7023315-12.1209717,657.131897-99.6210938,882.197937-203.8007812
	C1854.0998535,1386.1085205,1902.4459229,1256.8171387,1920.0704346,1117.9356689z"></path><path fill="#d8e2f4" d="M1552.6226807,509.2306519c-9.6124268-9.6124878-22.8918457-15.5578003-37.5596924-15.5578003h-52.8253174
	c-7.8685303-36.1958618-40.072876-63.3112793-78.6265869-63.3112793c-38.5533447,0-70.7575684,27.1154175-78.6262207,63.3112793
	h-14.1947021c-14.6677246,0-27.9471436,5.9453125-37.5593262,15.5578003
	c-9.6124268,9.6121826-15.5577393,22.8915405-15.5577393,37.5592651v0.0003662c0,16.2245483,7.2740479,30.75,18.7390137,40.492981
	c9.2650146,7.8737183,21.2667236,12.6240845,34.3780518,12.6240845h224.2728271
	c14.6678467,0,27.9472656-5.9453125,37.5596924-15.5578003c9.6121826-9.6121216,15.5574951-22.8914795,15.5574951-37.5592651
	v-0.0003662C1568.1801758,532.1221924,1562.2348633,518.8428345,1552.6226807,509.2306519z"></path><path fill="#fff" d="M640.9799805,393.3399658c0,20.0800171-7.5899658,38.3900146-20.0599976,52.210022
	C606.6500244,461.3599854,586,471.289978,563.0300293,471.289978H237.8499756
	c58.210022-83.75,129.8699951-157.460022,211.8600464-217.9699707
	c17.7399902,16.1900024,30.5199585,37.7299805,35.8099976,62.0599976h77.5100098
	c21.5299683,0,41.0199585,8.7299805,55.1199951,22.8399658c7.0499878,7.0499878,12.7599487,15.4500122,16.7099609,24.7700195
	C638.7999878,372.3200073,640.9799805,382.5799561,640.9799805,393.3399658z"></path><path fill="#d0dff3" d="M1548.2423096,1776.8112793c0,6.0147705-222.1557617,10.8907471-496.1987305,10.8907471
		s-496.1986694-4.8759766-496.1986694-10.8907471c0-6.0144043,222.1557007-10.8905029,496.1986694-10.8905029
		S1548.2423096,1770.796875,1548.2423096,1776.8112793z"></path><path fill="#fff" d="M1121.5806885,1776.2437744H752.119873c-26.0874634,0-49.8979492-9.7492676-67.9866333-25.8031006
				c-21.149231-18.7701416-34.4767456-46.1588135-34.4767456-76.6602783V721.8132935
				c0-28.2944946,11.4686279-53.9103394,30.0108643-72.4525757c18.5421753-18.5422363,44.1580811-30.0108643,72.4525146-30.0108643
				h369.4608154c25.8214111,0,49.4121094,9.5515137,67.4315186,25.3140259
				c21.4708252,18.7817993,35.0318604,46.381897,35.0318604,77.149353v951.9671631
				c0,27.3760986-10.7362061,52.2446289-28.2277832,70.6247559
				C1177.151001,1764.0185547,1150.793457,1776.2437744,1121.5806885,1776.2437744z"></path><path fill="#e0e9f3" d="M1127.7954102,1786.4095459h-381.890564c-58.6748047,0-106.4117432-47.7369385-106.4117432-106.4134521
				V715.5975342c0-58.6751709,47.7369385-106.4117432,106.4117432-106.4117432h381.890564
				c58.6765137,0,106.4133301,47.7365723,106.4133301,106.4117432v964.3985596
				C1234.2087402,1738.6726074,1186.4719238,1786.4095459,1127.7954102,1786.4095459z M745.9048462,629.5139771
				c-47.4669189,0-86.0835571,38.616333-86.0835571,86.0835571v964.3985596
				c0,47.4672852,38.6166382,86.0853271,86.0835571,86.0853271h381.890564c47.4667969,0,86.0852051-38.618042,86.0852051-86.0853271
				V715.5975342c0-47.4672241-38.6184082-86.0835571-86.0852051-86.0835571H745.9048462z"></path><path fill="#e0e9f3" d="M1123.0440674 1724.0354004H750.65625c-5.6133423 0-10.1640625-4.5509033-10.1640625-10.1640625 0-5.6130371 4.5507202-10.1641846 10.1640625-10.1641846h372.3878174c5.6131592 0 10.1640625 4.5511475 10.1640625 10.1641846C1133.2081299 1719.4844971 1128.6572266 1724.0354004 1123.0440674 1724.0354004zM749.4039917 697.7233276c0 10.3937378-8.4260254 18.819458-18.8198242 18.819458-10.3937378 0-18.819458-8.4257202-18.819458-18.819458 0-10.3937988 8.4257202-18.819458 18.819458-18.819458C740.9779663 678.9038696 749.4039917 687.3295288 749.4039917 697.7233276z"></path><path fill="#50c6a1" d="M848.0672607,1031.7531738c22.3230591-23.7635498,52.9690552-35.6494141,91.9384155-35.6494141
			c36.0428467,0,64.9057617,10.1660767,86.5844116,30.498291c21.6785889,20.331543,32.5229492,46.3139648,32.5229492,77.9394531
			c0,19.157959-3.9315186,34.6994629-11.7930908,46.6276855c-7.8615723,11.9278564-23.9746094,29.4594727-48.3301392,52.5915527
			c-17.7183228,16.8076172-29.2528687,31.0400391-34.5988159,42.6968994
			c-5.3493652,11.6574707-8.0217896,28.8713379-8.0217896,51.6436768h-48.2549438
			c0-25.8425293,3.071228-46.6707764,9.2174683-62.4874268c6.1411133-15.8118896,19.8151855-33.9285889,41.0153809-54.3532715
			l22.1231079-21.416748c6.633728-6.1422119,12.0169678-12.559082,16.1469727-19.2480469
			c7.5065308-11.7456055,11.2590942-23.9448242,11.2590942-36.5970459c0-17.7099609-5.4008179-33.0736084-16.1937256-46.0859375
			c-10.7925415-13.0124512-28.6464233-19.5184326-53.5571899-19.5184326c-30.8157959,0-52.1264648,11.208252-63.93573,33.6152344
			c-6.6415405,12.4707031-10.4246216,30.4560547-11.3482056,53.9475098h-48.2539062
			C814.5875244,1086.9196777,825.7439575,1055.5201416,848.0672607,1031.7531738z M907.0297241,1343.1026611h53.9475098v56.3868408
			h-53.9475098V1343.1026611z"></path><g><path fill="#d0dff3" d="M625.0930176,1776.8112793c0,6.0147705-32.9122925,10.8907471-73.5112915,10.8907471
			c-40.5993652,0-73.5116577-4.8759766-73.5116577-10.8907471c0-6.0144043,32.9122925-10.8905029,73.5116577-10.8905029
			C592.1807251,1765.9207764,625.0930176,1770.796875,625.0930176,1776.8112793z"></path><path fill="#3fb790" d="M452.0456543,1448.6362305c-2.5725403,12.8625488,12.8626099,15.4350586,15.4351501,33.442749
					c2.5725708,18.0076904-5.14505,23.152832-2.5725403,33.4428711
					c2.5725403,10.2901611,18.0076904,12.8626709,20.5802307,38.5882568
					c2.5725098,25.7252197-7.7175903,23.15271-5.14505,38.5878906
					c2.5725098,15.4351807,18.0076599,15.4351807,20.5802002,28.2977295
					c2.5725098,12.8626709,2.5725098,30.8703613,7.7175903,46.305542
					c5.1450195,15.4350586,20.5802002,38.5877686,28.2977905,38.5877686s28.2977905-43.7329102,23.15271-56.595459
					c-5.1450195-12.8626709-12.8626099-15.4351807-12.8626099-25.7253418c0-10.2900391,10.2901001-36.0152588,7.7175903-54.0229492
					c-2.5725708-18.0076904-25.7252808-25.7255859-28.2977905-38.5882568
					c-2.5725708-12.8626709,5.1450195-46.3054199-12.8626709-61.7406006
					C495.7786255,1453.78125,454.6181641,1435.7735596,452.0456543,1448.6362305z"></path><path fill="#34916f" d="M535.7583008,1701.4761963c-0.7084351,0-1.2837524-0.5726318-1.2861328-1.2823486
					c0-0.336792-0.2211914-33.7633057-10.0186768-43.5594482c-9.9384766-9.9398193-15.6086426-40.3503418-18.3820496-98.6040039
					c-2.5224304-52.9317627-40.4597778-96.5325928-40.8416443-96.9672852
					c-0.469574-0.5325928-0.4194336-1.3453369,0.1131592-1.8153076c0.5376892-0.47229,1.3491211-0.4194336,1.8163147,0.114502
					c0.3892822,0.4394531,38.9172058,44.6938477,41.4795837,98.5446777
					c2.705658,56.7890625,8.3077393,87.5827637,17.6333008,96.9083252
					c10.5438843,10.5439453,10.7674561,43.9542236,10.772583,45.3710938
					c0.0023193,0.7094727-0.572937,1.2874756-1.2813721,1.2897949
					C535.7609863,1701.4761963,535.7609863,1701.4761963,535.7583008,1701.4761963z"></path><path fill="#4fc7a0" d="M687.5210571,1487.5697021c9.09552,9.095459-20.5802002,12.8625488-23.15271,30.8702393
					c-2.5725708,18.0076904-2.5725708,25.7252197-12.8626099,36.0153809
					c-10.2901611,10.2901611-25.7252808,12.8626709-23.152771,28.2980957c2.5725098,15.4351807,7.7175903,30.8703613,0,38.5878906
					c-7.7175903,7.7176514-25.7252808,7.7176514-30.8703003,20.5802002
					c-5.1450806,12.8626709-2.5725708,28.2978516-12.8626709,41.1604004
					c-10.2900391,12.8626709-25.7252197,38.5878906-38.5878906,33.4428711c-12.8626099-5.1450195-5.1450195-64.3131104,0-74.6032715
					c5.1450806-10.2900391,10.2901001-18.0076904,10.2901001-25.7252197s-2.5725098-20.5802002,2.5725708-33.4428711
					c5.1450195-12.862915,33.4428101-18.0079346,36.0153198-25.7255859
					c2.5725708-7.7175293,5.1451416-48.8779297,20.5802612-59.1680908
					C630.9254761,1487.5697021,672.0858765,1472.1345215,687.5210571,1487.5697021z"></path><path fill="#3fb690" d="M550.024292,1712.1119385c-0.2263794,0-0.4550781-0.05896-0.6634521-0.1833496
					c-0.6077881-0.3656006-0.8063354-1.1556396-0.4397583-1.7647705
					c0.1030273-0.1734619,10.4083862-17.3985596,12.5838013-26.1071777
					c0.5604248-2.2435303,1.2386475-5.6413574,2.0199585-9.5742188
					c2.8438721-14.2807617,7.1398926-35.8608398,13.7543335-42.4742432
					c9.5993042-9.5992432,24.93927-38.9989014,35.6890869-76.6195068
					c13.2417603-46.3518066,57.022522-59.9154053,57.4622803-60.0472412
					c0.6931763-0.2049561,1.399231,0.1846924,1.6001587,0.8640137c0.2036133,0.6795654-0.1809692,1.3968506-0.8615723,1.6004639
					c-0.4272461,0.1280518-42.8812256,13.324707-55.7288818,58.2889404
					c-10.8681641,38.0413818-26.5093384,67.899292-36.342041,77.7320557
					c-6.0621948,6.0621338-10.435791,28.0314941-13.048584,41.157959c-0.7915039,3.9656982-1.4721069,7.392334-2.0474243,9.6948242
					c-2.2686157,9.0803223-12.4431763,26.0881348-12.8751831,26.8081055
					C550.8858032,1711.8896484,550.4585571,1712.1119385,550.024292,1712.1119385z"></path><g><path fill="#90dad8" d="M546.7398682,1517.026123c-30.8702393,2.5725098-20.5802002,95.1834717-20.5802002,95.1834717
					c7.7175903,79.748291,18.0076904,115.7636719,25.7252808,118.3361816s23.15271-113.1911621,23.15271-141.4888916
					C575.0376587,1589.0568848,577.6101685,1514.4536133,546.7398682,1517.026123z"></path><path fill="#fff" d="M550.6011963,1717.6831055c-0.0528564,0-0.1053467-0.0023193-0.1582031-0.0087891
					c-0.7033081-0.0864258-1.2058105-0.7270508-1.1204224-1.4317627
					c10.1518555-83.769165-2.444458-189.0042725-2.5725098-190.0568848
					c-0.0853882-0.7047119,0.4143677-1.3464355,1.1204224-1.4317627c0.68573-0.1030273,1.3463745,0.4143066,1.4317627,1.1203613
					c0.1307983,1.0563965,12.7647095,106.6014404,2.572876,190.6772461
					C551.7971802,1717.2047119,551.2418823,1717.6831055,550.6011963,1717.6831055z"></path></g><path fill="#d0daed" d="M588.9411011,1776.2437744h-78.2789001c-2.6166077,0-4.8167725-1.5924072-5.1122131-3.7008057
				l-11.3746033-81.1651611c-0.5119324-3.6531982,2.3248901-6.9155273,6.0137329-6.9155273h99.2250671
				c3.689209,0,6.526001,3.2623291,6.0140381,6.9155273l-11.374939,81.1651611
				C593.7578735,1774.6513672,591.5580444,1776.2437744,588.9411011,1776.2437744z"></path></g><g><path fill="#3fb790" d="M1348.9238281,1760.7171631h31.5355225v-167.7352295v-15.3677979V1458.085083h15.3676758v119.5290527
			h23.8516846V1458.085083h15.3673096v119.5290527v15.3677979h-15.3673096h-23.8516846v167.7352295h31.5352783
			c4.2438965,0,7.6837158,3.4401855,7.6837158,7.68396c0,4.2435303-3.4398193,7.6837158-7.6837158,7.6837158h-31.5352783
			h-15.3676758h-31.5355225c-4.2435303,0-7.6837158-3.4401855-7.6837158-7.6837158
			C1341.2401123,1764.1573486,1344.6802979,1760.7171631,1348.9238281,1760.7171631z"></path><path fill="#50c6a1" d="M1405.8260498,1392.4438477c66.9840088,0,121.28479,12.6224365,121.28479,28.1933594v15.2454834
			c0,15.5706787-54.3007812,28.1937256-121.28479,28.1937256c-66.9838867-0.0003662-121.28479-12.6230469-121.28479-28.1937256
			v-15.2454834C1284.5412598,1405.0662842,1338.8421631,1392.4438477,1405.8260498,1392.4438477z"></path></g><g><circle cx="1179.413" cy="981.501" r="79.929" fill="#fff" opacity=".1" transform="rotate(-63.72 1179.413 981.5)"></circle><path fill="#50c6a1" d="M1229.6708984,957.0056152c-2.8865967,0-5.5601807-1.857605-6.4666748-4.7577515
				c-2.8388672-9.0904541-9.0491943-16.5332031-17.4859619-20.9536133
				c-8.4338379-4.4216919-18.0883789-5.2920532-27.1804199-2.4498291c-3.5716553,1.1132812-7.3713379-0.8768311-8.4880371-4.4484863
				c-1.1149902-3.5716553,0.8751221-7.3716431,4.4484863-8.4883423c12.5444336-3.9189453,25.8664551-2.7178955,37.5093994,3.3832397
				c11.6433105,6.1008301,20.2143555,16.3709717,24.1333008,28.9171143
				c1.1149902,3.5716553-0.8751221,7.3717041-4.4484863,8.4883423
				C1231.0209961,956.9063721,1230.3393555,957.0056152,1229.6708984,957.0056152z" opacity=".17"></path><path fill="#d0daed" d="M1150.8843994,890.1725464c-50.439209,15.7559204-78.5554199,69.4181519-62.7993164,119.8573608
				c15.7559814,50.439209,69.4178467,78.5552979,119.8570557,62.7993164
				c50.4394531-15.7559814,78.5556641-69.4178467,62.7996826-119.8573608
				C1254.9858398,902.5326538,1201.3236084,874.4165039,1150.8843994,890.1725464z M1203.2456055,1057.7941895
				c-42.135498,13.1622314-86.9633789-10.3253174-100.1256104-52.4611206
				c-13.1621094-42.135498,10.3254395-86.9630737,52.4611816-100.1255493
				c42.135498-13.1621094,86.9631348,10.3253174,100.1256104,52.4611816
				C1268.8688965,999.8041382,1245.3811035,1044.6320801,1203.2456055,1057.7941895z"></path><rect width="16.652" height="75.838" x="1209.994" y="1068.131" fill="#d0daed" transform="rotate(-17.348 1218.32 1106.05)"></rect><linearGradient id="c" x1="1129.081" x2="1129.081" y1="1423.42" y2="1494.929" gradientTransform="rotate(-17.35 194.467 963.002)" gradientUnits="userSpaceOnUse"><stop offset="0" stop-color="#90dad8"></stop><stop offset="1" stop-color="#3fb790"></stop></linearGradient><path fill="url(#c)" d="M1270.2218018,1272.2025146
				L1270.2218018,1272.2025146c-10.1464844,3.1695557-20.9414062-2.4864502-24.1108398-12.6331787l-34.7645264-111.2894287
				c-1.6815186-5.3825684,1.3192139-11.109375,6.7017822-12.7908936l17.2514648-5.388916
				c5.3829346-1.6815186,11.1097412,1.3189697,12.7911377,6.7017822l34.7641602,111.2894287
				C1286.0245361,1258.237793,1280.3685303,1269.0327148,1270.2218018,1272.2025146z"></path><g><path fill="#ffaa9d" d="M1276.9310303,1223.3181152c0,0-35.8137207-22.0814209-46.6181641-33.5031738
				c-10.8040771-11.4219971-15.3720703-16.6135254-12.5938721-19.0375977
				c2.7781982-2.4241943,33.0168457,10.8897705,35.9350586,8.6479492c2.9180908-2.2418213,0.3696289-7.824707,3.6525879-10.3463135
				c3.2833252-2.5220947,22.789917,17.5854492,27.4182129,16.0601807
				C1289.3536377,1183.6135254,1282.3184814,1219.7600098,1276.9310303,1223.3181152z"></path><polygon fill="#ffaa9d" points="1134.105 1634.596 1107.843 1660.005 1041.309 1598.426 1063.202 1562.817"></polygon><linearGradient id="d" x1="-443.088" x2="-455.513" y1="-841.459" y2="-818.189" gradientTransform="scale(-1 1) rotate(-66.814 1107.147 861.11)" gradientUnits="userSpaceOnUse"><stop offset="0" stop-color="#14336d"></stop><stop offset=".966" stop-color="#0e2253"></stop></linearGradient><path fill="url(#d)" d="M1111.6921387,1656.2661133
				c0,0-18.3190918,22.9500732-21.7674561,22.9890137c-3.4482422,0.0390625-80.2612305-83.0739746-79.7601318-85.7449951
				c0.5014038-2.6715088,34.0371094,0.1964111,34.0371094,0.1964111L1111.6921387,1656.2661133z"></path><linearGradient id="e" x1="-1036.613" x2="-1151.865" y1="1538.764" y2="1445.921" gradientTransform="matrix(-1 0 0 1 103.344 0)" gradientUnits="userSpaceOnUse"><stop offset="0" stop-color="#14336d"></stop><stop offset=".966" stop-color="#0e2253"></stop></linearGradient><path fill="url(#e)" d="M1059.1130371,1559.0961914
				c0,0,76.9219971,80.4093018,79.8848877,80.4093018c2.9627686,0,370.0527344-281.8353271,370.0527344-281.8353271
				l-155.6051025-69.0231934C1353.4455566,1288.6469727,1155.8597412,1342.9648438,1059.1130371,1559.0961914z"></path><polygon fill="#ffaa9d" points="1407.58 1583.203 1420.598 1617.347 1337.798 1654.266 1313.683 1620.122"></polygon><linearGradient id="f" x1="-1201.766" x2="-1404.028" y1="1449.786" y2="1523.144" gradientTransform="matrix(-1 0 0 1 103.344 0)" gradientUnits="userSpaceOnUse"><stop offset="0" stop-color="#14336d"></stop><stop offset=".966" stop-color="#0e2253"></stop></linearGradient><path fill="url(#f)" d="M1341.3364258,1288.6469727
				c0,0-129.9182129,27.1088867-141.1707764,71.0970459c-11.2530518,43.9880371-1.0231934,92.067749,34.7810059,148.331665
				c35.8043213,56.263916,72.2171631,117.4610596,79.7209473,119.4473877c0,0,96.1981201-38.5356445,98.3729248-43.3388672
				c2.1750488-4.8028564-53.8706055-137.2298584-53.8706055-137.2298584s114.2088623-7.5959473,140.8505859-74.9267578
				L1341.3364258,1288.6469727z"></path><linearGradient id="g" x1="-1272.275" x2="-1374.011" y1="1110.811" y2="1301.348" gradientTransform="matrix(-1 0 0 1 103.344 0)" gradientUnits="userSpaceOnUse"><stop offset="0" stop-color="#3162df"></stop><stop offset=".965" stop-color="#173db8"></stop></linearGradient><path fill="url(#g)" d="M1332.2530518,1288.2468262
				c-1.1817627,7.657959,140.7253418,96.5390625,165.8427734,92.2508545
				c25.1170654-4.288208,57.6031494-107.9665527,48.6174316-185.3793945
				c-8.9853516-77.4125977-78.3232422-135.4772949-109.94104-132.7668457
				c-31.6176758,2.710083-48.5458984,32.3511963-52.8469238,79.4959717
				C1377.616333,1210.9985352,1333.5703125,1279.7106934,1332.2530518,1288.2468262z"></path><linearGradient id="h" x1="-1302.44" x2="-1418.088" y1="1202.953" y2="1446.768" gradientTransform="matrix(-1 0 0 1 103.344 0)" gradientUnits="userSpaceOnUse"><stop offset="0" stop-color="#3162df"></stop><stop offset=".965" stop-color="#173db8"></stop></linearGradient><path fill="url(#h)" d="M1450.9447021,1074.2532959
				c16.7333984-1.4544678,74.2851562,32.2979736,87.7423096,131.8831787
				c13.4576416,99.585083-41.5317383,107.9416504-87.7423096,101.4986572
				c-46.2105713-6.442627-162.4892578-63.4908447-179.5330811-83.8765869c0,0-3.6760254-32.0825195,8.6889648-43.4449463
				c0,0,112.1635742,11.4122314,141.2938232,20.1512451
				C1450.5245361,1209.2039795,1387.5219727,1079.7666016,1450.9447021,1074.2532959z"></path><linearGradient id="i" x1="-1260.979" x2="-1273.403" y1="1636.348" y2="1659.616" gradientTransform="matrix(-1 0 0 1 103.344 0)" gradientUnits="userSpaceOnUse"><stop offset="0" stop-color="#14336d"></stop><stop offset=".966" stop-color="#0e2253"></stop></linearGradient><path fill="url(#i)" d="M1418.6761475,1612.3372803
				c0,0,13.8843994,25.875,12.5628662,29.0601807c-1.3217773,3.1850586-107.963501,41.0743408-110.2216797,39.5618896
				c-2.2580566-1.5124512,13.5809326-31.2111816,13.5809326-31.2111816L1418.6761475,1612.3372803z"></path><path fill="#ffaa9d" d="M1356.9849854,1009.5681152l-0.5322266,35.5915527l5.3140869-0.1688232
					c0,0,4.2597656,29.4552002,25.0581055,24.8051758c5.9752197-1.3359375,13.6015625-6.3925781,15.7963867-5.3833008
					c2.6091309,1.2000732,3.7342529,9.2642822,4.3250732,11.5910645c2.2633057,8.9160156,33.4682617-0.0941162,28.4100342-9.230957
					c-4.8018799-8.6733398-11.9631348-20.5212402-10.4466553-23.8114014
					c5.2879639-11.4718018,6.7895508-39.9616699-21.8890381-49.4837036
					C1380.1716309,985.8912354,1357.2424316,997.3881836,1356.9849854,1009.5681152z"></path><path fill="#ff9f91" d="M1435.3564453,1066.7728271c-4.8018799-8.6733398-11.9631348-20.5212402-10.4466553-23.8114014
					c0,0-12.0457764,18.5257568-23.1601562,21.3276367c-0.0224609,0.0054932-0.0349121,0.0186768-0.057373,0.0247803
					c0.3598633-0.0217285,0.6895752-0.0112305,0.9290771,0.098877c2.6091309,1.2000732,3.7342529,9.263916,4.3250732,11.5910645
					C1409.2097168,1084.9197998,1440.4146729,1075.909668,1435.3564453,1066.7728271z"></path><path fill="#14336a" d="M1405.1159668,1027.0258789c13.4023438-2.2902832,5.0776367,27.5758057,19.8453369,26.5793457
					c14.7677002-0.9963379,25.0618896-33.2781372,14.2226562-58.1723022
					c-10.8391113-24.894165-31.4538574-23.5094604-51.0982666-20.1140137
					c-19.644165,3.3955078-43.7268066,12.2785645-43.7126465,27.1343384
					c0.0343018,35.7487793,42.3391113,5.756958,45.1348877,16.5061035
					c2.1623535,8.3135986,5.4886475,32.3553467-3.1304932,32.9112549
					c-8.6187744,0.5560303-17.3955078-6.5531006-24.2012939-4.7307129
					c-3.9240723,1.0510254-14.7088623,47.9378662,13.4836426,49.5041504
					c27.8895264,1.5493164,34.9481201-23.0690918,29.0699463-43.1756592
					C1399.1384277,1034.3439941,1398.5743408,1028.1439209,1405.1159668,1027.0258789z"></path></g></g></svg>